<svg xmlns="http://www.w3.org/2000/svg" width="80" height="80" viewBox="0 0 80 80">
  <circle cx="40" cy="40" r="38" fill="#f5f5f5" stroke="#4169e1" stroke-width="2"/>
  <g transform="translate(16, 16)">
    <!-- Car body -->
    <path d="M 44 28 L 40 16 C 39.5 14.5 38 13 36 13 L 12 13 C 10 13 8.5 14.5 8 16 L 4 28 C 2 28.5 0 30 0 33 L 0 40 C 0 42 1 43 3 43 L 3 47 C 3 49 5 49 6 49 L 10 49 C 11 49 13 49 13 47 L 13 43 L 35 43 L 35 47 C 35 49 37 49 38 49 L 42 49 C 43 49 45 49 45 47 L 45 43 C 47 43 48 42 48 40 L 48 33 C 48 30 46 28.5 44 28 Z" fill="#4169e1"/>
    
    <!-- Windows -->
    <path d="M 36 16 L 12 16 L 14 24 L 34 24 L 36 16 Z" fill="white"/>
    
    <!-- Wheels -->
    <circle cx="10" cy="36" r="6" fill="#333333" stroke="#f5f5f5" stroke-width="2"/>
    <circle cx="38" cy="36" r="6" fill="#333333" stroke="#f5f5f5" stroke-width="2"/>
    
    <!-- Lights -->
    <rect x="4" y="26" width="4" height="2" rx="1" fill="#ffcc00"/>
    <rect x="40" y="26" width="4" height="2" rx="1" fill="#ffcc00"/>
  </g>
</svg>