<svg xmlns="http://www.w3.org/2000/svg" width="80" height="80" viewBox="0 0 80 80">
  <circle cx="40" cy="40" r="38" fill="#f5f5f5" stroke="#4169e1" stroke-width="2"/>
  <g transform="translate(16, 16)">
    <!-- Smartphone -->
    <rect x="8" y="2" width="20" height="40" rx="3" fill="#4169e1"/>
    <rect x="10" y="6" width="16" height="28" fill="white"/>
    <circle cx="18" cy="38" r="2" fill="white"/>
    <rect x="15" y="4" width="6" height="1" rx="0.5" fill="white"/>
    
    <!-- Tablet -->
    <rect x="30" y="10" width="18" height="24" rx="2" fill="#4169e1" opacity="0.8"/>
    <rect x="31" y="12" width="16" height="20" fill="white"/>
    <circle cx="39" cy="34" r="1" fill="white"/>
    
    <!-- Headphones -->
    <path d="M 0 20 C 0 12 6 6 14 6 C 22 6 28 12 28 20 L 28 22 L 24 22 L 24 20 C 24 14 20 10 14 10 C 8 10 4 14 4 20 L 4 22 L 0 22 L 0 20 Z" fill="#4169e1" opacity="0.7"/>
    <rect x="0" y="22" width="4" height="8" rx="1" fill="#4169e1" opacity="0.9"/>
    <rect x="24" y="22" width="4" height="8" rx="1" fill="#4169e1" opacity="0.9"/>
    
    <!-- App icons on smartphone -->
    <rect x="12" y="8" width="4" height="4" rx="1" fill="#ff4d4d"/>
    <rect x="18" y="8" width="4" height="4" rx="1" fill="#ffcc00"/>
    <rect x="12" y="14" width="4" height="4" rx="1" fill="#4caf50"/>
    <rect x="18" y="14" width="4" height="4" rx="1" fill="#2196f3"/>
  </g>
</svg>