<svg xmlns="http://www.w3.org/2000/svg" width="80" height="80" viewBox="0 0 80 80">
  <circle cx="40" cy="40" r="38" fill="#f5f5f5" stroke="#4169e1" stroke-width="2"/>
  <g transform="translate(16, 16)">
    <!-- Energy efficiency symbol -->
    <path d="M 24 0 C 10.8 0 0 10.8 0 24 C 0 37.2 10.8 48 24 48 C 37.2 48 48 37.2 48 24 C 48 10.8 37.2 0 24 0 Z M 24 44 C 13 44 4 35 4 24 C 4 13 13 4 24 4 C 35 4 44 13 44 24 C 44 35 35 44 24 44 Z" fill="#4169e1" opacity="0.2"/>
    
    <!-- Leaf shape -->
    <path d="M 36 12 C 36 12 24 12 18 18 C 12 24 12 36 12 36 C 12 36 24 36 30 30 C 36 24 36 12 36 12 Z" fill="#4caf50"/>
    
    <!-- Leaf vein -->
    <path d="M 24 24 C 24 24 30 18 36 12" fill="none" stroke="white" stroke-width="1.5"/>
    
    <!-- Lightning bolt -->
    <path d="M 28 16 L 20 26 L 26 26 L 18 38 L 20 28 L 14 28 L 22 16 Z" fill="#ffcc00"/>
    
    <!-- Energy efficiency rating -->
    <rect x="8" y="32" width="32" height="8" rx="2" fill="#4169e1"/>
    <rect x="10" y="34" width="4" height="4" fill="#ff4d4d"/>
    <rect x="15" y="34" width="4" height="4" fill="#ff7043"/>
    <rect x="20" y="34" width="4" height="4" fill="#ffcc00"/>
    <rect x="25" y="34" width="4" height="4" fill="#8bc34a"/>
    <rect x="30" y="34" width="4" height="4" fill="#4caf50"/>
    <rect x="35" y="34" width="3" height="4" fill="#2196f3"/>
    
    <!-- Arrow pointing to highest efficiency -->
    <path d="M 36 32 L 36 28 L 38 30 L 40 28 L 40 32 Z" fill="#2196f3"/>
  </g>
</svg>