<svg xmlns="http://www.w3.org/2000/svg" width="80" height="80" viewBox="0 0 80 80">
  <circle cx="40" cy="40" r="38" fill="#f5f5f5" stroke="#4169e1" stroke-width="2"/>
  <g transform="translate(16, 12)">
    <!-- Factory building -->
    <path d="M 0 56 L 0 24 L 16 12 L 16 56 L 0 56 Z" fill="#4169e1" opacity="0.8"/>
    <path d="M 16 56 L 16 20 L 32 32 L 32 56 L 16 56 Z" fill="#4169e1" opacity="0.9"/>
    <path d="M 32 56 L 32 32 L 48 20 L 48 56 L 32 56 Z" fill="#4169e1"/>
    
    <!-- Windows -->
    <rect x="4" y="28" width="8" height="8" fill="white"/>
    <rect x="4" y="40" width="8" height="8" fill="white"/>
    <rect x="20" y="36" width="8" height="8" fill="white"/>
    <rect x="20" y="48" width="8" height="8" fill="white"/>
    <rect x="36" y="28" width="8" height="8" fill="white"/>
    <rect x="36" y="40" width="8" height="8" fill="white"/>
    
    <!-- Chimney -->
    <rect x="38" y="8" width="6" height="12" fill="#4169e1"/>
    <path d="M 36 8 L 46 8 C 46 8 44 4 41 4 C 38 4 36 8 36 8 Z" fill="#4169e1"/>
    
    <!-- Smoke -->
    <circle cx="41" cy="2" r="2" fill="#cccccc" opacity="0.6"/>
    <circle cx="44" cy="4" r="1.5" fill="#cccccc" opacity="0.5"/>
    <circle cx="38" cy="3" r="1.8" fill="#cccccc" opacity="0.7"/>
    
    <!-- Door -->
    <rect x="20" y="48" width="8" height="8" fill="#4169e1"/>
    <rect x="22" y="48" width="4" height="8" fill="white"/>
  </g>
</svg>