<svg xmlns="http://www.w3.org/2000/svg" width="500" height="200" viewBox="0 0 500 200">
  <!-- GR Logo -->
  <g transform="translate(100, 0)">
    <!-- G part (red) -->
    <path d="M 100 50 A 50 50 0 1 0 100 150 L 100 120 A 20 20 0 1 1 100 80 L 150 80 L 150 50 Z" fill="#ff4d4d"/>
    
    <!-- R part (blue) -->
    <path d="M 150 50 L 150 150 L 180 150 L 180 110 L 200 150 L 235 150 L 205 100 A 40 40 0 0 0 180 50 Z M 180 80 L 180 70 A 10 10 0 0 1 190 80 L 180 80 Z" fill="#4169e1"/>
  </g>
  
  <!-- GlobalstaR text -->
  <g transform="translate(100, 180)">
    <!-- Global sta -->
    <text x="0" y="0" font-family="Arial, sans-serif" font-size="40" font-weight="bold">
      <tspan fill="#ff4d4d">G</tspan><tspan fill="#333333">lobal sta</tspan><tspan fill="#4169e1">R</tspan>
    </text>
  </g>
  
  <!-- Semiconductor text -->
  <text x="250" y="220" font-family="Arial, sans-serif" font-size="24" text-anchor="middle" fill="#333333">Semiconductor</text>
  
  <!-- Co. Ltd text -->
  <text x="400" y="220" font-family="Arial, sans-serif" font-size="24" text-anchor="middle" fill="#333333">Co. Ltd</text>
</svg>